<svg width="24" height="22" viewBox="0 0 24 22" fill="none" xmlns="http://www.w3.org/2000/svg">
<path opacity="1" d="M0 2.55488C0 1.81432 0.262259 1.20337 0.786756 0.722031C1.31125 0.240669 1.99312 0 2.83232 0C3.65655 0 4.3234 0.236959 4.83293 0.710922C5.35743 1.19968 5.61969 1.83653 5.61969 2.62153C5.61969 3.33245 5.36493 3.92487 4.85541 4.39883C4.33091 4.88759 3.64156 5.13197 2.78736 5.13197H2.76489C1.94066 5.13197 1.2738 4.88759 0.764277 4.39883C0.254752 3.91007 0 3.29541 0 2.55488ZM0.292224 21.9942V7.15366H5.2825V21.9942H0.292224ZM8.04739 21.9942H13.0377V13.7075C13.0377 13.1891 13.0976 12.7892 13.2175 12.5078C13.4273 12.0042 13.7457 11.5784 14.1728 11.2304C14.5999 10.8823 15.1357 10.7083 15.7801 10.7083C17.4585 10.7083 18.2977 11.8265 18.2977 14.0629V21.9942H23.288V13.4853C23.288 11.2933 22.7635 9.63078 21.7145 8.49775C20.6654 7.36471 19.2793 6.7982 17.5559 6.7982C15.6227 6.7982 14.1166 7.6202 13.0377 9.26421V9.30864H13.0152L13.0377 9.26421V7.15366H8.04739C8.07735 7.6276 8.09235 9.10127 8.09235 11.5747C8.09235 14.0481 8.07735 17.5213 8.04739 21.9942Z" fill="black"/>
</svg>
