<svg width="24" height="20" viewBox="0 0 24 20" fill="none" xmlns="http://www.w3.org/2000/svg">
<path opacity="1" d="M23.135 2.80085C22.282 3.17088 21.38 3.4155 20.4569 3.52709C21.4308 2.94532 22.1605 2.0301 22.5108 0.951204C21.5957 1.49596 20.594 1.87977 19.5491 2.08595C18.8508 1.32859 17.9207 0.824448 16.905 0.652596C15.8892 0.480744 14.8451 0.650902 13.9364 1.13638C13.0278 1.62186 12.306 2.39521 11.8842 3.33513C11.4624 4.27505 11.3645 5.32838 11.6059 6.32992C9.75559 6.23633 7.94568 5.75455 6.29373 4.91586C4.64177 4.07718 3.18473 2.90036 2.01724 1.46184C1.60776 2.17693 1.39259 2.98674 1.39313 3.81077C1.39168 4.57603 1.57948 5.32977 1.9398 6.00489C2.30013 6.68001 2.8218 7.25555 3.45838 7.68027C2.71849 7.66014 1.99442 7.46161 1.34774 7.10155V7.15829C1.35329 8.2305 1.72901 9.26789 2.41136 10.095C3.09371 10.9221 4.0408 11.4881 5.09242 11.6973C4.6876 11.8205 4.26731 11.8854 3.84419 11.8902C3.5513 11.8868 3.25914 11.8602 2.97043 11.8108C3.26991 12.7331 3.84944 13.5392 4.62839 14.1168C5.40734 14.6944 6.34697 15.0148 7.31653 15.0335C5.67931 16.3217 3.65796 17.0248 1.57469 17.0306C1.19538 17.0319 0.816379 17.0091 0.439941 16.9625C2.56695 18.3359 5.04568 19.0649 7.57752 19.0618C9.32469 19.08 11.058 18.7498 12.6761 18.0906C14.2942 17.4313 15.7648 16.4563 17.0019 15.2224C18.2389 13.9885 19.2178 12.5204 19.8811 10.904C20.5445 9.28756 20.8791 7.55514 20.8654 5.80794C20.8654 5.61503 20.8654 5.41077 20.8654 5.20652C21.7559 4.54247 22.5239 3.72842 23.135 2.80085Z" fill="black"/>
</svg>
